<mxfile host="65bd71144e">
    <diagram id="1HWyQHKA96pz6tDpfXot" name="Page-1">
        <mxGraphModel dx="723" dy="417" grid="1" gridSize="10" guides="1" tooltips="1" connect="1" arrows="1" fold="1" page="1" pageScale="1" pageWidth="850" pageHeight="1100" background="#ffffff" math="0" shadow="0">
            <root>
                <mxCell id="0"/>
                <mxCell id="1" parent="0"/>
                <mxCell id="41" value="" style="group;strokeColor=#000000;fontColor=#000000;fillColor=#FFFFFF;container=0;" parent="1" vertex="1" connectable="0">
                    <mxGeometry x="150" y="260" width="235" height="500" as="geometry"/>
                </mxCell>
                <mxCell id="44" value="" style="rounded=0;whiteSpace=wrap;html=1;strokeColor=#000000;fillColor=#FFFFFF;fontColor=#000000;" parent="1" vertex="1">
                    <mxGeometry x="575" y="210" width="200" height="130" as="geometry"/>
                </mxCell>
                <mxCell id="55" style="edgeStyle=none;html=1;exitX=0.25;exitY=0;exitDx=0;exitDy=0;entryX=0.035;entryY=0.32;entryDx=0;entryDy=0;entryPerimeter=0;strokeColor=#FF9933;strokeWidth=2;" parent="1" source="45" target="5" edge="1">
                    <mxGeometry relative="1" as="geometry">
                        <Array as="points">
                            <mxPoint x="613" y="170"/>
                            <mxPoint x="105" y="170"/>
                            <mxPoint x="105" y="533"/>
                        </Array>
                    </mxGeometry>
                </mxCell>
                <mxCell id="45" value="Group 2&lt;br&gt;(3x 5-20R)" style="rounded=0;whiteSpace=wrap;html=1;strokeColor=#000000;fillColor=#FFFFFF;fontColor=#000000;" parent="1" vertex="1">
                    <mxGeometry x="595" y="230" width="70" height="70" as="geometry"/>
                </mxCell>
                <mxCell id="51" style="edgeStyle=none;html=1;exitX=0.5;exitY=0;exitDx=0;exitDy=0;entryX=-0.013;entryY=0.602;entryDx=0;entryDy=0;entryPerimeter=0;strokeColor=#FF9933;strokeWidth=2;" parent="1" source="46" target="7" edge="1">
                    <mxGeometry relative="1" as="geometry">
                        <Array as="points">
                            <mxPoint x="720" y="160"/>
                            <mxPoint x="85" y="160"/>
                            <mxPoint x="85" y="644"/>
                        </Array>
                    </mxGeometry>
                </mxCell>
                <mxCell id="56" style="edgeStyle=none;html=1;exitX=0.75;exitY=0;exitDx=0;exitDy=0;entryX=-0.074;entryY=0.55;entryDx=0;entryDy=0;entryPerimeter=0;strokeColor=#FF9933;strokeWidth=2;" parent="1" source="46" target="22" edge="1">
                    <mxGeometry relative="1" as="geometry">
                        <Array as="points">
                            <mxPoint x="738" y="150"/>
                            <mxPoint x="75" y="150"/>
                            <mxPoint x="75" y="480"/>
                            <mxPoint x="75" y="802"/>
                        </Array>
                    </mxGeometry>
                </mxCell>
                <mxCell id="69" style="edgeStyle=none;jumpStyle=arc;html=1;exitX=0.25;exitY=0;exitDx=0;exitDy=0;entryX=0.019;entryY=0.622;entryDx=0;entryDy=0;strokeColor=#FF9933;strokeWidth=2;entryPerimeter=0;" parent="1" source="46" target="66" edge="1">
                    <mxGeometry relative="1" as="geometry">
                        <Array as="points">
                            <mxPoint x="703" y="190"/>
                            <mxPoint x="110" y="190"/>
                            <mxPoint x="110" y="140"/>
                            <mxPoint x="110" y="84"/>
                        </Array>
                    </mxGeometry>
                </mxCell>
                <mxCell id="46" value="Group 1&lt;br&gt;(6x 5-15R)" style="rounded=0;whiteSpace=wrap;html=1;strokeColor=#000000;fillColor=#FFFFFF;fontColor=#000000;" parent="1" vertex="1">
                    <mxGeometry x="685" y="230" width="70" height="70" as="geometry"/>
                </mxCell>
                <mxCell id="60" value="" style="edgeStyle=elbowEdgeStyle;elbow=vertical;endArrow=classic;html=1;curved=0;rounded=0;endSize=8;startSize=8;exitX=0.5;exitY=0;exitDx=0;exitDy=0;exitPerimeter=0;strokeColor=#FF9933;fontColor=#000000;strokeWidth=3;" parent="1" source="22" edge="1">
                    <mxGeometry width="50" height="50" relative="1" as="geometry">
                        <mxPoint x="345" y="640" as="sourcePoint"/>
                        <mxPoint x="265" y="690" as="targetPoint"/>
                        <Array as="points">
                            <mxPoint x="235" y="710"/>
                        </Array>
                    </mxGeometry>
                </mxCell>
                <mxCell id="62" style="edgeStyle=none;html=1;exitX=0.5;exitY=1;exitDx=0;exitDy=0;entryX=0.035;entryY=0.32;entryDx=0;entryDy=0;entryPerimeter=0;jumpStyle=arc;strokeColor=#FF9933;strokeWidth=2;" parent="1" source="61" target="8" edge="1">
                    <mxGeometry relative="1" as="geometry">
                        <Array as="points">
                            <mxPoint x="450" y="130"/>
                            <mxPoint x="95" y="130"/>
                            <mxPoint x="95" y="583"/>
                        </Array>
                    </mxGeometry>
                </mxCell>
                <mxCell id="61" value="wall 120" style="rounded=0;whiteSpace=wrap;html=1;strokeColor=#000000;fontColor=#000000;fillColor=#FFFFFF;" parent="1" vertex="1">
                    <mxGeometry x="435" y="40" width="30" height="50" as="geometry"/>
                </mxCell>
                <mxCell id="66" value="lab cooler" style="rounded=1;whiteSpace=wrap;html=1;strokeColor=#000000;fillColor=#FFFFFF;fontColor=#000000;align=right;" parent="1" vertex="1">
                    <mxGeometry x="145" y="40" width="120" height="70" as="geometry"/>
                </mxCell>
                <mxCell id="72" value="control room 10g" style="rounded=0;whiteSpace=wrap;html=1;strokeColor=#000000;fontColor=#000000;fillColor=#FFFFFF;align=right;" parent="1" vertex="1">
                    <mxGeometry x="145" y="220" width="145" height="30" as="geometry"/>
                </mxCell>
                <mxCell id="73" value="" style="edgeStyle=segmentEdgeStyle;endArrow=classic;html=1;curved=0;rounded=0;endSize=8;startSize=8;jumpStyle=arc;entryX=1;entryY=0.5;entryDx=0;entryDy=0;strokeColor=#FF9933;strokeWidth=2;" parent="1" target="72" edge="1">
                    <mxGeometry width="50" height="50" relative="1" as="geometry">
                        <mxPoint x="515" y="190" as="sourcePoint"/>
                        <mxPoint x="425" y="570" as="targetPoint"/>
                        <Array as="points">
                            <mxPoint x="325" y="190"/>
                            <mxPoint x="325" y="235"/>
                        </Array>
                    </mxGeometry>
                </mxCell>
                <mxCell id="75" value="" style="rounded=1;whiteSpace=wrap;html=1;fillColor=#FFFFFF;strokeColor=#000000;fontColor=#000000;" parent="1" vertex="1">
                    <mxGeometry x="125" y="50" width="50" height="10" as="geometry"/>
                </mxCell>
                <mxCell id="77" style="edgeStyle=none;jumpStyle=arc;html=1;entryX=0;entryY=0.75;entryDx=0;entryDy=0;strokeColor=#FF33FF;strokeWidth=3;exitX=-0.03;exitY=1.709;exitDx=0;exitDy=0;exitPerimeter=0;" parent="1" source="75" target="9" edge="1">
                    <mxGeometry relative="1" as="geometry">
                        <mxPoint x="100" y="70" as="sourcePoint"/>
                        <Array as="points">
                            <mxPoint x="60" y="67"/>
                            <mxPoint x="60" y="698"/>
                        </Array>
                    </mxGeometry>
                </mxCell>
                <mxCell id="76" value="" style="rounded=1;whiteSpace=wrap;html=1;fillColor=#FFFFFF;strokeColor=#000000;fontColor=#000000;" parent="1" vertex="1">
                    <mxGeometry x="125" y="60" width="50" height="10" as="geometry"/>
                </mxCell>
                <mxCell id="78" style="edgeStyle=none;jumpStyle=arc;html=1;exitX=0;exitY=0.5;exitDx=0;exitDy=0;entryX=0;entryY=0.25;entryDx=0;entryDy=0;strokeColor=#FF33FF;strokeWidth=3;" parent="1" source="10" target="75" edge="1">
                    <mxGeometry relative="1" as="geometry">
                        <Array as="points">
                            <mxPoint x="50" y="705"/>
                            <mxPoint x="50" y="53"/>
                        </Array>
                    </mxGeometry>
                </mxCell>
                <mxCell id="80" value="AOC" style="shape=ext;double=1;rounded=1;whiteSpace=wrap;html=1;strokeColor=#000000;align=left;fillColor=#FFFFFF;fontColor=#000000;" parent="1" vertex="1">
                    <mxGeometry x="655" y="555" width="120" height="80" as="geometry"/>
                </mxCell>
                <mxCell id="86" value="" style="sketch=0;pointerEvents=1;shadow=0;dashed=0;html=1;strokeColor=#000000;fillColor=#FFFFFF;aspect=fixed;labelPosition=center;verticalLabelPosition=bottom;verticalAlign=top;align=center;outlineConnect=0;shape=mxgraph.vvd.ethernet_port;fontColor=#000000;" parent="1" vertex="1">
                    <mxGeometry x="740" y="570" width="30" height="30" as="geometry"/>
                </mxCell>
                <mxCell id="87" value="" style="sketch=0;pointerEvents=1;shadow=0;dashed=0;html=1;strokeColor=#000000;fillColor=#FFFFFF;aspect=fixed;labelPosition=center;verticalLabelPosition=bottom;verticalAlign=top;align=center;outlineConnect=0;shape=mxgraph.vvd.ethernet_port;fontColor=#000000;" parent="1" vertex="1">
                    <mxGeometry x="740" y="600" width="30" height="30" as="geometry"/>
                </mxCell>
                <mxCell id="94" value="" style="group;fillColor=#FFFFFF;strokeColor=#000000;fontColor=#000000;" parent="1" vertex="1" connectable="0">
                    <mxGeometry x="830" y="60" width="60" height="80" as="geometry"/>
                </mxCell>
                <mxCell id="85" value="MagAO-X VLAN" style="rounded=0;whiteSpace=wrap;html=1;strokeColor=#000000;horizontal=1;verticalAlign=top;fillColor=#FFFFFF;fontColor=#000000;" parent="94" vertex="1">
                    <mxGeometry width="60" height="80" as="geometry"/>
                </mxCell>
                <mxCell id="84" value="" style="sketch=0;pointerEvents=1;shadow=0;dashed=0;html=1;strokeColor=#000000;fillColor=#FFFFFF;aspect=fixed;labelPosition=center;verticalLabelPosition=bottom;verticalAlign=top;align=center;outlineConnect=0;shape=mxgraph.vvd.ethernet_port;fontColor=#000000;" parent="94" vertex="1">
                    <mxGeometry x="15" y="50" width="30" height="30" as="geometry"/>
                </mxCell>
                <mxCell id="97" style="edgeStyle=none;jumpStyle=arc;html=1;exitX=0.5;exitY=1;exitDx=0;exitDy=0;strokeColor=none;strokeWidth=2;fontColor=#FFFFFF;" parent="1" source="85" edge="1">
                    <mxGeometry relative="1" as="geometry">
                        <mxPoint x="870" y="220" as="targetPoint"/>
                    </mxGeometry>
                </mxCell>
                <mxCell id="99" style="edgeStyle=none;jumpStyle=arc;html=1;exitX=0.5;exitY=1;exitDx=0;exitDy=0;strokeColor=#000000;strokeWidth=2;fontColor=#000000;startArrow=classic;startFill=1;" parent="1" source="85" target="92" edge="1">
                    <mxGeometry relative="1" as="geometry">
                        <mxPoint x="860" y="480" as="targetPoint"/>
                        <Array as="points">
                            <mxPoint x="860" y="430"/>
                            <mxPoint x="785" y="430"/>
                        </Array>
                    </mxGeometry>
                </mxCell>
                <mxCell id="101" value="" style="group" parent="1" vertex="1" connectable="0">
                    <mxGeometry x="650" y="470" width="150" height="60" as="geometry"/>
                </mxCell>
                <mxCell id="82" value="5 port sw" style="rounded=0;whiteSpace=wrap;html=1;strokeColor=#000000;verticalAlign=bottom;fillColor=#FFFFFF;fontColor=#000000;" parent="101" vertex="1">
                    <mxGeometry width="150" height="60" as="geometry"/>
                </mxCell>
                <mxCell id="88" value="" style="sketch=0;pointerEvents=1;shadow=0;dashed=0;html=1;strokeColor=#000000;fillColor=#FFFFFF;aspect=fixed;labelPosition=center;verticalLabelPosition=bottom;verticalAlign=top;align=center;outlineConnect=0;shape=mxgraph.vvd.ethernet_port;fontColor=#000000;" parent="101" vertex="1">
                    <mxGeometry width="30" height="30" as="geometry"/>
                </mxCell>
                <mxCell id="89" value="" style="sketch=0;pointerEvents=1;shadow=0;dashed=0;html=1;strokeColor=#000000;fillColor=#FFFFFF;aspect=fixed;labelPosition=center;verticalLabelPosition=bottom;verticalAlign=top;align=center;outlineConnect=0;shape=mxgraph.vvd.ethernet_port;fontColor=#000000;" parent="101" vertex="1">
                    <mxGeometry x="30" width="30" height="30" as="geometry"/>
                </mxCell>
                <mxCell id="90" value="" style="sketch=0;pointerEvents=1;shadow=0;dashed=0;html=1;strokeColor=#000000;fillColor=#FFFFFF;aspect=fixed;labelPosition=center;verticalLabelPosition=bottom;verticalAlign=top;align=center;outlineConnect=0;shape=mxgraph.vvd.ethernet_port;fontColor=#000000;" parent="101" vertex="1">
                    <mxGeometry x="60" width="30" height="30" as="geometry"/>
                </mxCell>
                <mxCell id="91" value="" style="sketch=0;pointerEvents=1;shadow=0;dashed=0;html=1;strokeColor=#000000;fillColor=#FFFFFF;aspect=fixed;labelPosition=center;verticalLabelPosition=bottom;verticalAlign=top;align=center;outlineConnect=0;shape=mxgraph.vvd.ethernet_port;fontColor=#000000;" parent="101" vertex="1">
                    <mxGeometry x="90" width="30" height="30" as="geometry"/>
                </mxCell>
                <mxCell id="100" style="edgeStyle=none;jumpStyle=arc;html=1;strokeColor=#000000;strokeWidth=2;fontColor=#000000;" parent="101" source="92" target="82" edge="1">
                    <mxGeometry relative="1" as="geometry"/>
                </mxCell>
                <mxCell id="92" value="" style="sketch=0;pointerEvents=1;shadow=0;dashed=0;html=1;strokeColor=#000000;fillColor=#FFFFFF;aspect=fixed;labelPosition=center;verticalLabelPosition=bottom;verticalAlign=top;align=center;outlineConnect=0;shape=mxgraph.vvd.ethernet_port;fontColor=#000000;" parent="101" vertex="1">
                    <mxGeometry x="120" width="30" height="30" as="geometry"/>
                </mxCell>
                <mxCell id="102" value="" style="edgeStyle=segmentEdgeStyle;endArrow=classic;html=1;rounded=1;endSize=8;startSize=8;strokeColor=#000000;strokeWidth=2;fontColor=#000000;jumpStyle=arc;startArrow=classic;startFill=1;" parent="1" source="86" edge="1">
                    <mxGeometry width="50" height="50" relative="1" as="geometry">
                        <mxPoint x="530" y="410" as="sourcePoint"/>
                        <mxPoint x="755" y="470" as="targetPoint"/>
                        <Array as="points">
                            <mxPoint x="820" y="585"/>
                            <mxPoint x="820" y="410"/>
                            <mxPoint x="755" y="410"/>
                        </Array>
                    </mxGeometry>
                </mxCell>
                <mxCell id="103" value="" style="edgeStyle=segmentEdgeStyle;endArrow=classic;html=1;rounded=1;endSize=8;startSize=8;strokeColor=#000000;strokeWidth=2;fontColor=#000000;jumpStyle=arc;startArrow=classic;startFill=1;" parent="1" source="12" target="90" edge="1">
                    <mxGeometry width="50" height="50" relative="1" as="geometry">
                        <mxPoint x="350" y="620" as="sourcePoint"/>
                        <mxPoint x="400" y="570" as="targetPoint"/>
                        <Array as="points">
                            <mxPoint x="130" y="415"/>
                            <mxPoint x="130" y="140"/>
                            <mxPoint x="790" y="140"/>
                            <mxPoint x="790" y="400"/>
                            <mxPoint x="725" y="400"/>
                        </Array>
                    </mxGeometry>
                </mxCell>
                <mxCell id="5" value="" style="pointerEvents=1;verticalLabelPosition=bottom;shadow=0;dashed=0;align=center;html=1;verticalAlign=top;shape=mxgraph.electrical.miscellaneous.f_m_3_conductor_3;strokeColor=#000000;fontColor=#000000;fillColor=none;" parent="1" vertex="1">
                    <mxGeometry x="165" y="520" width="40" height="40" as="geometry"/>
                </mxCell>
                <mxCell id="7" value="" style="pointerEvents=1;verticalLabelPosition=bottom;shadow=0;dashed=0;align=center;html=1;verticalAlign=top;shape=mxgraph.electrical.miscellaneous.f_m_3_conductor_3;strokeColor=#000000;fontColor=#000000;fillColor=none;" parent="1" vertex="1">
                    <mxGeometry x="165" y="620" width="40" height="40" as="geometry"/>
                </mxCell>
                <mxCell id="8" value="" style="pointerEvents=1;verticalLabelPosition=bottom;shadow=0;dashed=0;align=center;html=1;verticalAlign=top;shape=mxgraph.electrical.miscellaneous.f_m_3_conductor_3;strokeColor=#000000;fontColor=#000000;fillColor=none;" parent="1" vertex="1">
                    <mxGeometry x="165" y="570" width="40" height="40" as="geometry"/>
                </mxCell>
                <mxCell id="9" value="" style="rounded=1;whiteSpace=wrap;html=1;strokeColor=#000000;fontColor=#000000;fillColor=none;" parent="1" vertex="1">
                    <mxGeometry x="125" y="690" width="50" height="10" as="geometry"/>
                </mxCell>
                <mxCell id="10" value="" style="rounded=1;whiteSpace=wrap;html=1;strokeColor=#000000;fontColor=#000000;fillColor=none;" parent="1" vertex="1">
                    <mxGeometry x="125" y="700" width="50" height="10" as="geometry"/>
                </mxCell>
                <mxCell id="12" value="" style="sketch=0;pointerEvents=1;shadow=0;dashed=0;html=1;strokeColor=#000000;fillColor=#434445;aspect=fixed;labelPosition=center;verticalLabelPosition=bottom;verticalAlign=top;align=center;outlineConnect=0;shape=mxgraph.vvd.ethernet_port;fontColor=#000000;" parent="1" vertex="1">
                    <mxGeometry x="170" y="400" width="30" height="30" as="geometry"/>
                </mxCell>
                <mxCell id="13" value="" style="sketch=0;pointerEvents=1;shadow=0;dashed=0;html=1;strokeColor=#000000;fillColor=#434445;aspect=fixed;labelPosition=center;verticalLabelPosition=bottom;verticalAlign=top;align=center;outlineConnect=0;shape=mxgraph.vvd.ethernet_port;fontColor=#000000;" parent="1" vertex="1">
                    <mxGeometry x="170" y="440" width="30" height="30" as="geometry"/>
                </mxCell>
                <mxCell id="15" value="" style="sketch=0;pointerEvents=1;shadow=0;dashed=0;html=1;strokeColor=#000000;fillColor=#434445;aspect=fixed;labelPosition=center;verticalLabelPosition=bottom;verticalAlign=top;align=center;outlineConnect=0;shape=mxgraph.vvd.ethernet_port;fontColor=#000000;" parent="1" vertex="1">
                    <mxGeometry x="170" y="480" width="30" height="30" as="geometry"/>
                </mxCell>
                <mxCell id="16" value="lan" style="text;html=1;strokeColor=#000000;fillColor=none;align=center;verticalAlign=middle;whiteSpace=wrap;rounded=0;fontColor=#000000;" parent="1" vertex="1">
                    <mxGeometry x="205" y="440" width="60" height="30" as="geometry"/>
                </mxCell>
                <mxCell id="17" value="www" style="text;html=1;strokeColor=#000000;fillColor=none;align=center;verticalAlign=middle;whiteSpace=wrap;rounded=0;fontColor=#000000;" parent="1" vertex="1">
                    <mxGeometry x="205" y="400" width="60" height="30" as="geometry"/>
                </mxCell>
                <mxCell id="18" value="lan" style="text;html=1;strokeColor=#000000;fillColor=none;align=center;verticalAlign=middle;whiteSpace=wrap;rounded=0;fontColor=#000000;" parent="1" vertex="1">
                    <mxGeometry x="205" y="480" width="60" height="30" as="geometry"/>
                </mxCell>
                <mxCell id="19" value="pwr0" style="text;html=1;strokeColor=#000000;fillColor=none;align=center;verticalAlign=middle;whiteSpace=wrap;rounded=0;fontColor=#000000;" parent="1" vertex="1">
                    <mxGeometry x="205" y="525" width="60" height="30" as="geometry"/>
                </mxCell>
                <mxCell id="20" value="pwr1" style="text;html=1;strokeColor=#000000;fillColor=none;align=center;verticalAlign=middle;whiteSpace=wrap;rounded=0;fontColor=#000000;" parent="1" vertex="1">
                    <mxGeometry x="205" y="570" width="60" height="30" as="geometry"/>
                </mxCell>
                <mxCell id="21" value="pwr2" style="text;html=1;strokeColor=#000000;fillColor=none;align=center;verticalAlign=middle;whiteSpace=wrap;rounded=0;fontColor=#000000;" parent="1" vertex="1">
                    <mxGeometry x="205" y="625" width="60" height="30" as="geometry"/>
                </mxCell>
                <mxCell id="22" value="" style="pointerEvents=1;verticalLabelPosition=bottom;shadow=0;dashed=0;align=center;html=1;verticalAlign=top;shape=mxgraph.electrical.miscellaneous.f_m_3_conductor_3;strokeColor=#000000;fontColor=#000000;fillColor=none;" parent="1" vertex="1">
                    <mxGeometry x="200" y="780" width="40" height="40" as="geometry"/>
                </mxCell>
                <mxCell id="23" value="pdu1" style="text;html=1;strokeColor=none;fillColor=none;align=center;verticalAlign=middle;whiteSpace=wrap;rounded=0;fontColor=#000000;" parent="1" vertex="1">
                    <mxGeometry x="245" y="785" width="35" height="30" as="geometry"/>
                </mxCell>
                <mxCell id="104" value="" style="sketch=0;pointerEvents=1;shadow=0;dashed=0;html=1;strokeColor=#000000;fillColor=#434445;aspect=fixed;labelPosition=center;verticalLabelPosition=bottom;verticalAlign=top;align=center;outlineConnect=0;shape=mxgraph.vvd.ethernet_port;fontColor=#000000;" parent="1" vertex="1">
                    <mxGeometry x="145" y="220" width="30" height="30" as="geometry"/>
                </mxCell>
                <mxCell id="106" value="" style="edgeStyle=segmentEdgeStyle;endArrow=classic;html=1;rounded=1;endSize=8;startSize=8;strokeColor=#000000;strokeWidth=2;fontColor=#000000;jumpStyle=arc;entryX=0.098;entryY=0.118;entryDx=0;entryDy=0;entryPerimeter=0;" parent="1" source="87" target="72" edge="1">
                    <mxGeometry width="50" height="50" relative="1" as="geometry">
                        <mxPoint x="870" y="440" as="sourcePoint"/>
                        <mxPoint x="600" y="200" as="targetPoint"/>
                        <Array as="points">
                            <mxPoint x="810" y="615"/>
                            <mxPoint x="810" y="120"/>
                            <mxPoint x="160" y="120"/>
                            <mxPoint x="160" y="200"/>
                        </Array>
                    </mxGeometry>
                </mxCell>
                <mxCell id="107" value="" style="edgeStyle=segmentEdgeStyle;endArrow=classic;html=1;curved=0;rounded=0;endSize=8;startSize=8;strokeWidth=2;fontColor=#000000;jumpStyle=arc;exitX=0.5;exitY=1;exitDx=0;exitDy=0;strokeColor=#00FFFF;" parent="1" source="72" edge="1">
                    <mxGeometry width="50" height="50" relative="1" as="geometry">
                        <mxPoint x="400" y="350" as="sourcePoint"/>
                        <mxPoint x="310" y="340" as="targetPoint"/>
                        <Array as="points">
                            <mxPoint x="218" y="290"/>
                            <mxPoint x="310" y="290"/>
                        </Array>
                    </mxGeometry>
                </mxCell>
                <mxCell id="108" value="" style="edgeStyle=segmentEdgeStyle;endArrow=classic;html=1;rounded=1;endSize=8;startSize=8;strokeColor=#80FF00;strokeWidth=2;fontColor=#000000;jumpStyle=arc;exitX=0;exitY=0.75;exitDx=0;exitDy=0;startArrow=classic;startFill=1;" parent="1" source="66" edge="1">
                    <mxGeometry width="50" height="50" relative="1" as="geometry">
                        <mxPoint x="330" y="330" as="sourcePoint"/>
                        <mxPoint x="190" y="280" as="targetPoint"/>
                        <Array as="points">
                            <mxPoint x="120" y="93"/>
                            <mxPoint x="120" y="280"/>
                        </Array>
                    </mxGeometry>
                </mxCell>
                <mxCell id="110" value="" style="endArrow=classic;startArrow=classic;html=1;rounded=1;strokeColor=#000000;strokeWidth=2;fontColor=#000000;jumpStyle=arc;" parent="1" edge="1">
                    <mxGeometry width="50" height="50" relative="1" as="geometry">
                        <mxPoint x="580" y="750" as="sourcePoint"/>
                        <mxPoint x="650" y="750" as="targetPoint"/>
                    </mxGeometry>
                </mxCell>
                <mxCell id="111" value="" style="endArrow=classic;startArrow=classic;html=1;rounded=1;strokeColor=#80FF00;strokeWidth=2;fontColor=#000000;jumpStyle=arc;" parent="1" edge="1">
                    <mxGeometry width="50" height="50" relative="1" as="geometry">
                        <mxPoint x="580" y="770" as="sourcePoint"/>
                        <mxPoint x="650" y="770" as="targetPoint"/>
                    </mxGeometry>
                </mxCell>
                <mxCell id="112" value="" style="endArrow=classic;startArrow=none;html=1;rounded=1;strokeColor=#FF9933;strokeWidth=2;fontColor=#000000;jumpStyle=arc;startFill=0;" parent="1" edge="1">
                    <mxGeometry width="50" height="50" relative="1" as="geometry">
                        <mxPoint x="580" y="710" as="sourcePoint"/>
                        <mxPoint x="650" y="710" as="targetPoint"/>
                    </mxGeometry>
                </mxCell>
                <mxCell id="113" value="" style="endArrow=classic;startArrow=none;html=1;rounded=1;strokeColor=#FF00FF;strokeWidth=2;fontColor=#000000;jumpStyle=arc;startFill=0;" parent="1" edge="1">
                    <mxGeometry width="50" height="50" relative="1" as="geometry">
                        <mxPoint x="580" y="730" as="sourcePoint"/>
                        <mxPoint x="650" y="730" as="targetPoint"/>
                    </mxGeometry>
                </mxCell>
                <mxCell id="114" value="A/C Power" style="text;html=1;strokeColor=none;fillColor=none;align=center;verticalAlign=middle;whiteSpace=wrap;rounded=0;fontColor=#000000;" parent="1" vertex="1">
                    <mxGeometry x="645" y="700" width="75" height="20" as="geometry"/>
                </mxCell>
                <mxCell id="115" value="Glycol" style="text;html=1;strokeColor=none;fillColor=none;align=center;verticalAlign=middle;whiteSpace=wrap;rounded=0;fontColor=#000000;" parent="1" vertex="1">
                    <mxGeometry x="645" y="720" width="75" height="20" as="geometry"/>
                </mxCell>
                <mxCell id="116" value="cat6 ethernet" style="text;html=1;strokeColor=none;fillColor=none;align=center;verticalAlign=middle;whiteSpace=wrap;rounded=0;fontColor=#000000;" parent="1" vertex="1">
                    <mxGeometry x="645" y="740" width="85" height="20" as="geometry"/>
                </mxCell>
                <mxCell id="117" value="USB" style="text;html=1;strokeColor=none;fillColor=none;align=center;verticalAlign=middle;whiteSpace=wrap;rounded=0;fontColor=#000000;" parent="1" vertex="1">
                    <mxGeometry x="645" y="760" width="85" height="20" as="geometry"/>
                </mxCell>
                <mxCell id="118" value="220V UPS" style="rounded=0;whiteSpace=wrap;html=1;fillColor=#FFFFFF;strokeColor=#000000;fontColor=#000000;" vertex="1" parent="1">
                    <mxGeometry x="770" y="655" width="80" height="30" as="geometry"/>
                </mxCell>
                <mxCell id="119" value="" style="edgeStyle=segmentEdgeStyle;endArrow=classic;html=1;curved=0;rounded=0;endSize=8;startSize=8;fontColor=#000000;exitX=0;exitY=0.5;exitDx=0;exitDy=0;entryX=0.5;entryY=1;entryDx=0;entryDy=0;strokeColor=#FF9933;strokeWidth=2;" edge="1" parent="1" source="118" target="80">
                    <mxGeometry width="50" height="50" relative="1" as="geometry">
                        <mxPoint x="900" y="730" as="sourcePoint"/>
                        <mxPoint x="950" y="680" as="targetPoint"/>
                        <Array as="points">
                            <mxPoint x="715" y="670"/>
                        </Array>
                    </mxGeometry>
                </mxCell>
                <mxCell id="124" style="edgeStyle=none;html=1;exitX=0.5;exitY=0;exitDx=0;exitDy=0;entryX=0.5;entryY=1;entryDx=0;entryDy=0;strokeColor=#FF9933;strokeWidth=2;fontColor=#000000;" edge="1" parent="1" source="123" target="118">
                    <mxGeometry relative="1" as="geometry"/>
                </mxCell>
                <mxCell id="123" value="Wall 220V" style="rounded=0;whiteSpace=wrap;html=1;fillColor=#FFFFFF;strokeColor=#000000;fontColor=#000000;" vertex="1" parent="1">
                    <mxGeometry x="770" y="720" width="80" height="30" as="geometry"/>
                </mxCell>
                <mxCell id="125" value="Note: Only pwr0 is plugged into Group 2.&amp;nbsp; Do not add anything to Group 2." style="text;html=1;strokeColor=none;fillColor=none;align=center;verticalAlign=middle;whiteSpace=wrap;rounded=0;fontColor=#000000;" vertex="1" parent="1">
                    <mxGeometry x="575" y="350" width="165" height="30" as="geometry"/>
                </mxCell>
                <mxCell id="126" value="Note: pwr1 must not be plugged into the UPS.&amp;nbsp;&amp;nbsp;" style="text;html=1;strokeColor=none;fillColor=none;align=center;verticalAlign=middle;whiteSpace=wrap;rounded=0;fontColor=#000000;" vertex="1" parent="1">
                    <mxGeometry x="480" y="50" width="130" height="30" as="geometry"/>
                </mxCell>
                <mxCell id="127" value="MagAO-X Rack" style="text;html=1;strokeColor=none;fillColor=none;align=center;verticalAlign=middle;whiteSpace=wrap;rounded=0;fontColor=#000000;" vertex="1" parent="1">
                    <mxGeometry x="260" y="730" width="110" height="30" as="geometry"/>
                </mxCell>
                <mxCell id="128" value="UPS" style="text;html=1;strokeColor=none;fillColor=none;align=center;verticalAlign=middle;whiteSpace=wrap;rounded=0;fontColor=#000000;" vertex="1" parent="1">
                    <mxGeometry x="575" y="310" width="60" height="30" as="geometry"/>
                </mxCell>
            </root>
        </mxGraphModel>
    </diagram>
</mxfile>
